<svg width="707" height="291" fill="none" xmlns="http://www.w3.org/2000/svg"><rect y=".082" width="707" height="290" rx="80" fill="#3287FF"/><path fill-rule="evenodd" clip-rule="evenodd" d="M147 219.063C187.904 219.063 221.063 185.904 221.063 145C221.063 104.096 187.904 70.9375 147 70.9375C106.096 70.9375 72.9375 104.096 72.9375 145C72.9375 185.904 106.096 219.063 147 219.063ZM147 235C196.706 235 237 194.706 237 145C237 95.2944 196.706 55 147 55C97.2944 55 57 95.2944 57 145C57 194.706 97.2944 235 147 235Z" fill="#fff"/><path d="M158.6 108.234H150.377C136.281 108.234 129.233 115.282 129.233 125.855 129.233 137.602 133.931 143.475 144.504 150.523L152.727 156.397 129.233 192.813H110.438L132.757 159.921C119.835 150.523 112.787 142.3 112.787 127.029 112.787 108.234 125.709 95.3125 150.377 95.3125H175.046V192.813H158.6V108.234zM308.04 103.04H321.24V146H308.04V103.04zM266.46 103.04H279.6V146H266.46V103.04zM272.04 112.1V103.04H312.54V112.1H272.04zM349.881 122.6C347.841 122.6 345.741 122.74 343.581 123.02 341.461 123.3 339.461 123.66 337.581 124.1 335.741 124.5 334.141 124.92 332.781 125.36V116.9C335.021 116.14 337.861 115.52 341.301 115.04 344.741 114.56 348.421 114.32 352.341 114.32 356.621 114.32 360.301 114.72 363.381 115.52 366.461 116.28 368.841 117.54 370.521 119.3 372.201 121.02 373.041 123.34 373.041 126.26V141.02C373.041 141.66 373.081 142.52 373.161 143.6 373.241 144.64 373.321 145.44 373.401 146H361.341C361.181 145.36 361.001 144.58 360.801 143.66 360.641 142.7 360.521 141.82 360.441 141.02L360.141 137.72V127.16C360.141 125.88 359.761 124.92 359.001 124.28 358.241 123.64 357.101 123.2 355.581 122.96 354.061 122.72 352.161 122.6 349.881 122.6zM360.141 133.4L362.361 136.94C362.281 137.54 362.021 138.26 361.581 139.1 361.181 139.94 360.581 140.8 359.781 141.68 358.981 142.56 357.901 143.38 356.541 144.14 355.181 144.86 353.541 145.46 351.621 145.94 349.701 146.38 347.421 146.6 344.781 146.6 341.741 146.6 339.101 146.26 336.861 145.58 334.621 144.9 332.881 143.88 331.641 142.52 330.401 141.16 329.781 139.5 329.781 137.54 329.781 135.26 330.561 133.34 332.121 131.78 333.721 130.22 336.121 129.04 339.321 128.24 342.561 127.4 346.621 126.98 351.501 126.98H360.681V132.62H350.421C348.461 132.62 346.881 132.76 345.681 133.04 344.481 133.28 343.621 133.66 343.101 134.18 342.621 134.66 342.381 135.28 342.381 136.04 342.381 136.84 342.661 137.5 343.221 138.02 343.781 138.54 344.621 138.92 345.741 139.16 346.861 139.36 348.201 139.46 349.761 139.46 351.641 139.46 353.241 139.26 354.561 138.86 355.921 138.42 356.981 137.88 357.741 137.24 358.541 136.56 359.141 135.88 359.541 135.2 359.941 134.48 360.141 133.88 360.141 133.4zM381.636 114.92H393.636L394.356 121.04 394.116 123.8 393.096 129.92 394.476 136.4V156.62H381.636V114.92zM390.576 130.52V128.24C390.816 126.2 391.416 124.34 392.376 122.66 393.376 120.94 394.716 119.48 396.396 118.28 398.076 117.04 400.136 116.08 402.576 115.4 405.016 114.68 407.836 114.32 411.036 114.32 415.156 114.32 418.836 114.9 422.076 116.06 425.316 117.18 427.876 118.94 429.756 121.34 431.636 123.7 432.576 126.72 432.576 130.4 432.576 134.08 431.636 137.12 429.756 139.52 427.916 141.92 425.356 143.7 422.076 144.86 418.836 146.02 415.156 146.6 411.036 146.6 407.636 146.6 404.656 146.16 402.096 145.28 399.536 144.4 397.396 143.2 395.676 141.68 393.996 140.16 392.716 138.44 391.836 136.52 390.996 134.6 390.576 132.6 390.576 130.52zM419.256 130.4C419.256 128.6 418.756 127.14 417.756 126.02 416.756 124.9 415.336 124.06 413.496 123.5 411.656 122.9 409.476 122.6 406.956 122.6 404.556 122.6 402.396 122.9 400.476 123.5 398.596 124.06 397.096 124.92 395.976 126.08 394.856 127.2 394.296 128.64 394.296 130.4 394.296 132.16 394.836 133.64 395.916 134.84 397.036 136 398.556 136.86 400.476 137.42 402.396 137.98 404.516 138.26 406.836 138.26 409.396 138.26 411.596 137.98 413.436 137.42 415.276 136.86 416.696 136 417.696 134.84 418.736 133.68 419.256 132.2 419.256 130.4zM448.74 116.18H461.52V146H448.74V116.18zM434.1 114.92H476.4V123.38H434.1V114.92zM513.279 114.92H526.239V146H513.279V114.92zM494.259 114.92V146H481.419V114.92H494.259zM487.419 126.08H518.079V134.54H487.419V126.08zM566.647 112.76C565.447 112.76 564.307 112.52 563.227 112.04 562.187 111.52 561.347 110.86 560.707 110.06 560.067 109.26 559.747 108.38 559.747 107.42 559.747 106.38 560.067 105.46 560.707 104.66 561.347 103.86 562.187 103.22 563.227 102.74 564.307 102.26 565.447 102.02 566.647 102.02 567.967 102.02 569.147 102.26 570.187 102.74 571.267 103.22 572.107 103.86 572.707 104.66 573.347 105.46 573.667 106.38 573.667 107.42 573.667 108.38 573.347 109.26 572.707 110.06 572.107 110.86 571.267 111.52 570.187 112.04 569.147 112.52 567.967 112.76 566.647 112.76zM546.727 112.76C545.487 112.76 544.347 112.52 543.307 112.04 542.267 111.52 541.427 110.86 540.787 110.06 540.147 109.26 539.827 108.38 539.827 107.42 539.827 106.38 540.147 105.46 540.787 104.66 541.427 103.86 542.267 103.22 543.307 102.74 544.347 102.26 545.487 102.02 546.727 102.02 548.047 102.02 549.247 102.26 550.327 102.74 551.407 103.22 552.267 103.86 552.907 104.66 553.547 105.46 553.867 106.38 553.867 107.42 553.867 108.38 553.547 109.26 552.907 110.06 552.267 110.86 551.407 111.52 550.327 112.04 549.247 112.52 548.047 112.76 546.727 112.76zM560.527 146.6C553.887 146.6 548.507 145.98 544.387 144.74 540.307 143.46 537.327 141.62 535.447 139.22 533.567 136.78 532.627 133.84 532.627 130.4 532.627 127.8 533.187 125.5 534.307 123.5 535.427 121.5 537.047 119.82 539.167 118.46 541.327 117.1 543.927 116.08 546.967 115.4 550.007 114.68 553.447 114.32 557.287 114.32 561.087 114.32 564.467 114.72 567.427 115.52 570.427 116.28 572.907 117.44 574.867 119 576.827 120.52 578.167 122.48 578.887 124.88 579.647 127.24 579.647 130.02 578.887 133.22H539.707V126.62H571.747L566.407 129.92C566.767 128.44 566.807 127.16 566.527 126.08 566.287 125 565.767 124.12 564.967 123.44 564.167 122.76 563.127 122.24 561.847 121.88 560.567 121.52 559.107 121.34 557.467 121.34 555.587 121.34 553.907 121.52 552.427 121.88 550.987 122.2 549.767 122.72 548.767 123.44 547.767 124.16 547.007 125.06 546.487 126.14 545.967 127.22 545.707 128.5 545.707 129.98 545.707 132.06 546.167 133.76 547.087 135.08 548.007 136.36 549.587 137.28 551.827 137.84 554.067 138.4 557.207 138.68 561.247 138.68 563.807 138.68 566.047 138.58 567.967 138.38 569.927 138.18 571.647 137.92 573.127 137.6 574.607 137.28 575.887 136.96 576.967 136.64V144.44C575.887 144.8 574.647 145.14 573.247 145.46 571.847 145.78 570.127 146.04 568.087 146.24 566.087 146.48 563.567 146.6 560.527 146.6zM586.186 114.92H598.186L598.906 121.04 598.666 123.8 597.646 129.92 599.026 136.4V156.62H586.186V114.92zM595.126 130.52V128.24C595.366 126.2 595.966 124.34 596.926 122.66 597.926 120.94 599.266 119.48 600.946 118.28 602.626 117.04 604.686 116.08 607.126 115.4 609.566 114.68 612.386 114.32 615.586 114.32 619.706 114.32 623.386 114.9 626.626 116.06 629.866 117.18 632.426 118.94 634.306 121.34 636.186 123.7 637.126 126.72 637.126 130.4 637.126 134.08 636.186 137.12 634.306 139.52 632.466 141.92 629.906 143.7 626.626 144.86 623.386 146.02 619.706 146.6 615.586 146.6 612.186 146.6 609.206 146.16 606.646 145.28 604.086 144.4 601.946 143.2 600.226 141.68 598.546 140.16 597.266 138.44 596.386 136.52 595.546 134.6 595.126 132.6 595.126 130.52zM623.806 130.4C623.806 128.6 623.306 127.14 622.306 126.02 621.306 124.9 619.886 124.06 618.046 123.5 616.206 122.9 614.026 122.6 611.506 122.6 609.106 122.6 606.946 122.9 605.026 123.5 603.146 124.06 601.646 124.92 600.526 126.08 599.406 127.2 598.846 128.64 598.846 130.4 598.846 132.16 599.386 133.64 600.466 134.84 601.586 136 603.106 136.86 605.026 137.42 606.946 137.98 609.066 138.26 611.386 138.26 613.946 138.26 616.146 137.98 617.986 137.42 619.826 136.86 621.246 136 622.246 134.84 623.286 133.68 623.806 132.2 623.806 130.4z" fill="#fff"/><g clip-path="url(#clip0_696_2764)"><path d="M265.37 174.91C265.37 173.39 265.7 172.16 266.36 171.22C267.02 170.28 267.94 169.59 269.12 169.15C270.3 168.71 271.66 168.49 273.2 168.49H277.58V171.07H273.2C272.26 171.07 271.42 171.19 270.68 171.43C269.94 171.67 269.36 172.07 268.94 172.63C268.54 173.19 268.34 173.95 268.34 174.91C268.34 175.81 268.51 176.55 268.85 177.13C269.21 177.71 269.73 178.14 270.41 178.42C271.09 178.7 271.92 178.84 272.9 178.84H277.58V181.39H272.78L271.28 181.06C270.02 180.9 268.95 180.57 268.07 180.07C267.19 179.57 266.52 178.9 266.06 178.06C265.6 177.2 265.37 176.15 265.37 174.91ZM270.8 180.13H274.01L267.2 190H263.75L270.8 180.13ZM277.04 168.49H279.89V190H277.04V168.49ZM294.725 174.43H297.365V190H294.725V174.43ZM287.195 174.43V190H284.555V174.43H287.195ZM286.235 180.85H296.495V183.1H286.235V180.85ZM302.053 194.44H299.683V187.75H302.473L302.053 194.44ZM300.493 187.93C301.073 187.69 301.543 187.27 301.903 186.67C302.263 186.07 302.543 185.29 302.743 184.33C302.863 183.77 302.963 183.14 303.043 182.44C303.143 181.74 303.213 180.98 303.253 180.16C303.313 179.34 303.363 178.45 303.403 177.49C303.443 176.53 303.473 175.51 303.493 174.43H305.953C305.913 175.65 305.863 176.78 305.803 177.82C305.763 178.84 305.703 179.79 305.623 180.67C305.563 181.55 305.483 182.35 305.383 183.07C305.303 183.79 305.193 184.44 305.053 185.02C304.893 185.74 304.683 186.37 304.423 186.91C304.183 187.43 303.883 187.87 303.523 188.23C303.183 188.57 302.773 188.84 302.293 189.04L300.493 187.93ZM300.823 190V187.75H316.453V190H300.823ZM304.213 176.68V174.43H313.033V176.68H304.213ZM311.563 190V174.43H314.203V190H311.563ZM314.233 194.44L313.753 187.75H316.543V194.44H314.233ZM325.908 190.3C324.188 190.3 322.728 189.98 321.528 189.34C320.328 188.7 319.418 187.78 318.798 186.58C318.198 185.36 317.898 183.9 317.898 182.2C317.898 180.94 318.078 179.81 318.438 178.81C318.818 177.81 319.338 176.96 319.998 176.26C320.658 175.56 321.438 175.03 322.338 174.67C323.238 174.31 324.218 174.13 325.278 174.13C326.458 174.13 327.488 174.33 328.368 174.73C329.248 175.13 329.958 175.72 330.498 176.5C331.058 177.26 331.428 178.18 331.608 179.26C331.808 180.34 331.808 181.56 331.608 182.92H319.308V180.7H330.048L329.058 181.24C329.138 180.48 329.108 179.81 328.968 179.23C328.848 178.65 328.618 178.15 328.278 177.73C327.958 177.31 327.538 177 327.018 176.8C326.498 176.58 325.898 176.47 325.218 176.47C324.558 176.47 323.938 176.59 323.358 176.83C322.798 177.07 322.308 177.43 321.888 177.91C321.488 178.37 321.168 178.96 320.928 179.68C320.708 180.4 320.598 181.24 320.598 182.2C320.598 183.46 320.798 184.52 321.198 185.38C321.598 186.22 322.208 186.86 323.028 187.3C323.848 187.72 324.888 187.93 326.148 187.93C326.788 187.93 327.408 187.87 328.008 187.75C328.608 187.63 329.188 187.45 329.748 187.21C330.328 186.95 330.878 186.65 331.398 186.31V188.68C330.918 189.02 330.378 189.31 329.778 189.55C329.198 189.79 328.578 189.97 327.918 190.09C327.258 190.23 326.588 190.3 325.908 190.3ZM335.15 174.43H337.79V190H335.15V174.43ZM347.87 190H344.66L338.3 182.32L344.75 174.43H347.75L340.85 182.71V181.48L347.87 190ZM337.01 183.37V181.12H339.74V183.37H337.01ZM356.929 190.3C355.329 190.3 353.939 189.98 352.759 189.34C351.579 188.7 350.669 187.78 350.029 186.58C349.409 185.36 349.099 183.9 349.099 182.2C349.099 180.5 349.419 179.05 350.059 177.85C350.699 176.65 351.609 175.73 352.789 175.09C353.989 174.45 355.409 174.13 357.049 174.13C357.689 174.13 358.289 174.18 358.849 174.28C359.429 174.38 359.959 174.52 360.439 174.7C360.919 174.88 361.329 175.1 361.669 175.36V177.73C361.229 177.45 360.759 177.22 360.259 177.04C359.779 176.86 359.269 176.72 358.729 176.62C358.189 176.52 357.639 176.47 357.079 176.47C355.879 176.47 354.889 176.68 354.109 177.1C353.329 177.52 352.749 178.16 352.369 179.02C351.989 179.86 351.799 180.92 351.799 182.2C351.799 183.48 351.979 184.55 352.339 185.41C352.699 186.25 353.259 186.88 354.019 187.3C354.779 187.72 355.749 187.93 356.929 187.93C357.769 187.93 358.589 187.83 359.389 187.63C360.189 187.41 360.949 187.1 361.669 186.7V189.07C361.249 189.33 360.789 189.56 360.289 189.76C359.789 189.94 359.259 190.07 358.699 190.15C358.139 190.25 357.549 190.3 356.929 190.3ZM378.205 179.08C379.225 179.08 380.115 178.94 380.875 178.66C381.635 178.36 382.225 177.9 382.645 177.28C383.085 176.64 383.305 175.8 383.305 174.76C383.305 173.9 383.115 173.2 382.735 172.66C382.355 172.12 381.805 171.72 381.085 171.46C380.365 171.2 379.485 171.07 378.445 171.07H373.855V168.49H378.445C380.065 168.49 381.445 168.72 382.585 169.18C383.745 169.62 384.625 170.3 385.225 171.22C385.845 172.14 386.155 173.31 386.155 174.73C386.155 176.35 385.815 177.67 385.135 178.69C384.475 179.71 383.545 180.46 382.345 180.94C381.165 181.4 379.785 181.63 378.205 181.63H373.855V179.08H378.205ZM371.575 168.49H374.395V190H371.575V168.49ZM395.664 190.3C393.944 190.3 392.484 189.98 391.284 189.34C390.084 188.7 389.174 187.78 388.554 186.58C387.954 185.36 387.654 183.9 387.654 182.2C387.654 180.94 387.834 179.81 388.194 178.81C388.574 177.81 389.094 176.96 389.754 176.26C390.414 175.56 391.194 175.03 392.094 174.67C392.994 174.31 393.974 174.13 395.034 174.13C396.214 174.13 397.244 174.33 398.124 174.73C399.004 175.13 399.714 175.72 400.254 176.5C400.814 177.26 401.184 178.18 401.364 179.26C401.564 180.34 401.564 181.56 401.364 182.92H389.064V180.7H399.804L398.814 181.24C398.894 180.48 398.864 179.81 398.724 179.23C398.604 178.65 398.374 178.15 398.034 177.73C397.714 177.31 397.294 177 396.774 176.8C396.254 176.58 395.654 176.47 394.974 176.47C394.314 176.47 393.694 176.59 393.114 176.83C392.554 177.07 392.064 177.43 391.644 177.91C391.244 178.37 390.924 178.96 390.684 179.68C390.464 180.4 390.354 181.24 390.354 182.2C390.354 183.46 390.554 184.52 390.954 185.38C391.354 186.22 391.964 186.86 392.784 187.3C393.604 187.72 394.644 187.93 395.904 187.93C396.544 187.93 397.164 187.87 397.764 187.75C398.364 187.63 398.944 187.45 399.504 187.21C400.084 186.95 400.634 186.65 401.154 186.31V188.68C400.674 189.02 400.134 189.31 399.534 189.55C398.954 189.79 398.334 189.97 397.674 190.09C397.014 190.23 396.344 190.3 395.664 190.3ZM404.906 174.43H407.546V190H404.906V174.43ZM417.626 190H414.416L408.056 182.32L414.506 174.43H417.506L410.606 182.71V181.48L417.626 190ZM406.766 183.37V181.12H409.496V183.37H406.766ZM430.064 174.43H432.734V190H430.064V174.43ZM422.984 174.43H431.534V176.68H422.984V174.43ZM419.144 187.42C419.764 187.5 420.274 187.36 420.674 187C421.074 186.64 421.384 186.03 421.604 185.17C421.724 184.71 421.824 184.18 421.904 183.58C421.984 182.96 422.054 182.23 422.114 181.39C422.174 180.53 422.214 179.53 422.234 178.39C422.254 177.25 422.264 175.93 422.264 174.43H424.754C424.754 175.99 424.744 177.37 424.724 178.57C424.704 179.75 424.664 180.8 424.604 181.72C424.544 182.62 424.464 183.42 424.364 184.12C424.284 184.8 424.174 185.42 424.034 185.98C423.794 186.98 423.454 187.79 423.014 188.41C422.594 189.03 422.064 189.47 421.424 189.73C420.784 189.99 420.024 190.09 419.144 190.03V187.42ZM442.295 176.47C441.775 176.47 441.225 176.53 440.645 176.65C440.085 176.77 439.515 176.94 438.935 177.16C438.375 177.38 437.815 177.66 437.255 178V175.63C437.995 175.17 438.845 174.81 439.805 174.55C440.785 174.27 441.735 174.13 442.655 174.13C443.955 174.13 445.045 174.31 445.925 174.67C446.825 175.03 447.505 175.58 447.965 176.32C448.425 177.06 448.655 177.99 448.655 179.11V187.48C448.655 187.82 448.665 188.26 448.685 188.8C448.725 189.32 448.765 189.72 448.805 190H446.405C446.345 189.72 446.285 189.33 446.225 188.83C446.185 188.31 446.165 187.86 446.165 187.48L446.015 185.86V179.47C446.015 178.75 445.895 178.17 445.655 177.73C445.415 177.29 445.025 176.97 444.485 176.77C443.945 176.57 443.215 176.47 442.295 176.47ZM446.015 184L446.615 185.38C446.595 185.58 446.525 185.87 446.405 186.25C446.305 186.63 446.125 187.05 445.865 187.51C445.605 187.97 445.255 188.42 444.815 188.86C444.395 189.28 443.865 189.63 443.225 189.91C442.585 190.17 441.815 190.3 440.915 190.3C439.995 190.3 439.175 190.12 438.455 189.76C437.755 189.4 437.205 188.88 436.805 188.2C436.425 187.52 436.235 186.69 436.235 185.71C436.235 184.57 436.505 183.64 437.045 182.92C437.585 182.18 438.365 181.64 439.385 181.3C440.405 180.94 441.645 180.76 443.105 180.76H446.345V182.86H443.375C442.335 182.86 441.475 182.96 440.795 183.16C440.135 183.36 439.645 183.66 439.325 184.06C439.025 184.46 438.875 184.96 438.875 185.56C438.875 186.02 438.965 186.43 439.145 186.79C439.345 187.15 439.635 187.43 440.015 187.63C440.415 187.83 440.905 187.93 441.485 187.93C442.305 187.93 443.005 187.77 443.585 187.45C444.165 187.11 444.635 186.71 444.995 186.25C445.355 185.77 445.615 185.32 445.775 184.9C445.935 184.48 446.015 184.18 446.015 184ZM453.916 174.43H456.736L462.406 186.79L461.266 188.26H460.276L453.916 174.43ZM460.666 186.61L466.606 174.43H469.156L462.376 188.26H460.426L460.666 186.61ZM452.806 174.43H455.296V190H452.806V174.43ZM467.656 174.43H470.266V190H467.656V174.43ZM479.584 187.75C480.344 187.75 481.004 187.66 481.564 187.48C482.144 187.28 482.594 186.98 482.914 186.58C483.254 186.16 483.424 185.62 483.424 184.96C483.424 184.28 483.274 183.74 482.974 183.34C482.694 182.92 482.284 182.61 481.744 182.41C481.204 182.21 480.544 182.11 479.764 182.11H476.644V179.86H479.764C481.744 179.86 483.294 180.25 484.414 181.03C485.534 181.81 486.094 183.07 486.094 184.81C486.094 186.03 485.814 187.02 485.254 187.78C484.694 188.54 483.924 189.1 482.944 189.46C481.964 189.82 480.844 190 479.584 190H476.644V187.75H479.584ZM477.214 174.43V190H474.574V174.43H477.214ZM490.984 174.43V190H488.344V174.43H490.984Z" fill="#fff"/></g><rect x="176" y="40.082" width="90" height="90" rx="45" fill="#3287FF"/><mask id="a" style="mask-type:alpha" maskUnits="userSpaceOnUse" x="201" y="57" width="48" height="48"><path fill="#D9D9D9" d="M201.823 57.486H248.596V104.259H201.823z"/></mask><g mask="url(#a)"><path fill-rule="evenodd" clip-rule="evenodd" d="M251.402 78.0975C264.336 78.0975 274.821 67.6126 274.821 54.6788C274.821 41.745 264.336 31.2601 251.402 31.2601C238.469 31.2601 227.984 41.745 227.984 54.6788C227.984 67.6126 238.469 78.0975 251.402 78.0975ZM251.402 92.0975C272.068 92.0975 288.821 75.3445 288.821 54.6788C288.821 34.013 272.068 17.2601 251.402 17.2601C230.737 17.2601 213.984 34.013 213.984 54.6788C213.984 75.3445 230.737 92.0975 251.402 92.0975Z" fill="#B4D7FF"/></g><mask id="b" style="mask-type:alpha" maskUnits="userSpaceOnUse" x="193" y="65" width="48" height="48"><path transform="rotate(-180 240.177 112.678)" fill="#D9D9D9" d="M240.177 112.678H286.95V159.451H240.177z"/></mask><g mask="url(#b)"><path fill-rule="evenodd" clip-rule="evenodd" d="M190.597 92.0656C177.663 92.0656 167.179 102.55 167.179 115.484C167.179 128.418 177.663 138.903 190.597 138.903C203.531 138.903 214.016 128.418 214.016 115.484C214.016 102.55 203.531 92.0656 190.597 92.0656ZM190.597 78.0656C169.931 78.0656 153.179 94.8185 153.179 115.484C153.179 136.15 169.931 152.903 190.597 152.903C211.263 152.903 228.016 136.15 228.016 115.484C228.016 94.8185 211.263 78.0656 190.597 78.0656Z" fill="#B4D7FF"/></g><mask id="c" style="mask-type:alpha" maskUnits="userSpaceOnUse" x="193" y="57" width="48" height="48"><path transform="matrix(-1 0 0 1 240.177 57.486)" fill="#D9D9D9" d="M0 0H46.773V46.773H0z"/></mask><g mask="url(#c)"><path fill-rule="evenodd" clip-rule="evenodd" d="M190.597 78.0975C177.663 78.0975 167.179 67.6126 167.179 54.6788C167.179 41.745 177.663 31.2601 190.597 31.2601C203.531 31.2601 214.016 41.745 214.016 54.6788C214.016 67.6126 203.531 78.0975 190.597 78.0975ZM190.597 92.0975C169.931 92.0975 153.179 75.3445 153.179 54.6788C153.179 34.013 169.931 17.2601 190.597 17.2601C211.263 17.2601 228.016 34.013 228.016 54.6788C228.016 75.3445 211.263 92.0975 190.597 92.0975Z" fill="#fff"/></g><mask id="d" style="mask-type:alpha" maskUnits="userSpaceOnUse" x="201" y="65" width="48" height="48"><path transform="matrix(1 0 0 -1 201.823 112.678)" fill="#D9D9D9" d="M0 0H46.773V46.773H0z"/></mask><g mask="url(#d)"><path fill-rule="evenodd" clip-rule="evenodd" d="M251.403 92.0656C264.337 92.0656 274.821 102.55 274.821 115.484C274.821 128.418 264.337 138.903 251.403 138.903C238.469 138.903 227.984 128.418 227.984 115.484C227.984 102.55 238.469 92.0656 251.403 92.0656ZM251.403 78.0656C272.069 78.0656 288.821 94.8185 288.821 115.484C288.821 136.15 272.069 152.903 251.403 152.903C230.737 152.903 213.984 136.15 213.984 115.484C213.984 94.8185 230.737 78.0656 251.403 78.0656Z" fill="#fff"/></g><defs><clipPath id="clip0_696_2764"><path fill="#fff" transform="translate(261 165)" d="M0 0H232V30H0z"/></clipPath></defs></svg>